{
  "accessors": [
    {
      "bufferView": 2,
      "componentType": 5126,
      "count": 2316,
      "max": [
        1.2799748182296753,
        0.767778217792511,
        0.7514828443527222
      ],
      "min": [
        -0.7145501375198364,
        -0.9286376237869263,
        -0.7514828443527222
      ],
      "type": "VEC3"
    },
    {
      "bufferView": 2,
      "byteOffset": 27792,
      "componentType": 5126,
      "count": 2316,
      "max": [
        0.9995240569114685,
        0.9960326552391052,
        0.9999957084655762
      ],
      "min": [
        -0.9995905160903931,
        -0.9999409317970276,
        -0.9999957084655762
      ],
      "type": "VEC3"
    },
    {
      "bufferView": 1,
      "componentType": 5126,
      "count": 2316,
      "max": [
        1.0000001192092896,
        1.0000447034835815
      ],
      "min": [
        0.0,
        0.0
      ],
      "type": "VEC2"
    },
    {
      "bufferView": 0,
      "componentType": 5125,
      "count": 3486,
      "type": "SCALAR"
    },
    {
      "bufferView": 2,
      "byteOffset": 55584,
      "componentType": 5126,
      "count": 100,
      "max": [
        1.4888437986373901,
        0.24755044281482697,
        0.23433148860931396
      ],
      "min": [
        1.1532182693481445,
        -0.0370858833193779,
        -0.23433148860931396
      ],
      "type": "VEC3"
    },
    {
      "bufferView": 2,
      "byteOffset": 56784,
      "componentType": 5126,
      "count": 100,
      "max": [
        0.9505173563957214,
        0.9877265691757202,
        0.9968090057373047
      ],
      "min": [
        -0.9299024939537048,
        -0.988028883934021,
        -0.9968090057373047
      ],
      "type": "VEC3"
    },
    {
      "bufferView": 1,
      "byteOffset": 18528,
      "componentType": 5126,
      "count": 100,
      "max": [
        1.0000001192092896,
        0.4884456396102905
      ],
      "min": [
        1.0,
        0.2997583746910095
      ],
      "type": "VEC2"
    },
    {
      "bufferView": 0,
      "byteOffset": 13944,
      "componentType": 5125,
      "count": 150,
      "type": "SCALAR"
    }
  ],
  "asset": {
    "extras": {
      "author": "MrEliptik (https://sketchfab.com/mreliptik)",
      "license": "CC-BY-4.0 (http://creativecommons.org/licenses/by/4.0/)",
      "source": "https://sketchfab.com/3d-models/low-poly-elephant-84fd98c561464b1ba5d3dd48ab161b9c",
      "title": "Low poly elephant"
    },
    "generator": "Sketchfab-12.68.0",
    "version": "2.0"
  },
  "bufferViews": [
    {
      "buffer": 0,
      "byteLength": 14544,
      "name": "floatBufferViews",
      "target": 34963
    },
    {
      "buffer": 0,
      "byteLength": 19328,
      "byteOffset": 14544,
      "byteStride": 8,
      "name": "floatBufferViews",
      "target": 34962
    },
    {
      "buffer": 0,
      "byteLength": 57984,
      "byteOffset": 33872,
      "byteStride": 12,
      "name": "floatBufferViews",
      "target": 34962
    }
  ],
  "buffers": [
    {
      "byteLength": 91856,
      "uri": "scene.bin"
    }
  ],
  "materials": [
    {
      "doubleSided": true,
      "name": "Grey",
      "pbrMetallicRoughness": {
        "baseColorFactor": [
          0.201981,
          0.196145,
          0.207916,
          1.0
        ],
        "metallicFactor": 0.0,
        "roughnessFactor": 0.4
      }
    },
    {
      "doubleSided": true,
      "name": "Blank",
      "pbrMetallicRoughness": {
        "metallicFactor": 0.0,
        "roughnessFactor": 0.5
      }
    }
  ],
  "meshes": [
    {
      "name": "Object_0",
      "primitives": [
        {
          "attributes": {
            "NORMAL": 1,
            "POSITION": 0,
            "TEXCOORD_0": 2
          },
          "indices": 3,
          "material": 0,
          "mode": 4
        }
      ]
    },
    {
      "name": "Object_1",
      "primitives": [
        {
          "attributes": {
            "NORMAL": 5,
            "POSITION": 4,
            "TEXCOORD_0": 6
          },
          "indices": 7,
          "material": 1,
          "mode": 4
        }
      ]
    }
  ],
  "nodes": [
    {
      "children": [
        1
      ],
      "matrix": [
        1.0,
        0.0,
        0.0,
        0.0,
        0.0,
        2.220446049250313e-16,
        -1.0,
        0.0,
        0.0,
        1.0,
        2.220446049250313e-16,
        0.0,
        0.0,
        0.0,
        0.0,
        1.0
      ],
      "name": "Sketchfab_model"
    },
    {
      "children": [
        2
      ],
      "name": "root"
    },
    {
      "children": [
        3
      ],
      "matrix": [
        1.0,
        0.0,
        0.0,
        0.0,
        0.0,
        2.220446049250313e-16,
        1.0,
        0.0,
        0.0,
        -1.0,
        2.220446049250313e-16,
        0.0,
        0.0,
        0.0,
        0.0,
        1.0
      ],
      "name": "GLTF_SceneRootNode"
    },
    {
      "children": [
        4,
        5
      ],
      "matrix": [
        1.0,
        0.0,
        0.0,
        0.0,
        0.0,
        1.0,
        0.0,
        0.0,
        0.0,
        0.0,
        1.0,
        0.0,
        0.0,
        0.9084808826446533,
        0.0,
        1.0
      ],
      "name": "Elephant_0"
    },
    {
      "mesh": 0,
      "name": "Object_4"
    },
    {
      "mesh": 1,
      "name": "Object_5"
    }
  ],
  "scene": 0,
  "scenes": [
    {
      "name": "Sketchfab_Scene",
      "nodes": [
        0
      ]
    }
  ]
}
